<?xml version="1.0" encoding="UTF-8"?>
<svg id="Layer_2" data-name="Layer 2" xmlns="http://www.w3.org/2000/svg" viewBox="0 0 253.08 102.69">
  <defs>
    <style>
      .cls-1 {
        fill: none;
        stroke: #826c48;
        stroke-miterlimit: 10;
        stroke-width: .38px;
      }

      .cls-2 {
        fill: #826c48;
      }

      .cls-2, .cls-3 {
        stroke-width: 0px;
      }

      .cls-3 {
        fill: #0f1d3a;
      }
    </style>
  </defs>
  <g id="Layer_1-2" data-name="Layer 1">
    <g>
      <g>
        <path class="cls-2" d="m118.56,20.81c0-1.48,1.2-2.68,2.69-2.68s2.68,1.2,2.68,2.68-1.21,2.7-2.68,2.7-2.69-1.2-2.69-2.7m10.42,12.01c-1.65-1.35-.97-2.44-1.87-3.38-.08,1.61-.42,3.32-1.51,4.4-.46.46-1.13,1.02-2.19,1.02-.07,0-.16,0-.25-.01-.77-.07-1.07-.24-1.43-.24h-.05c.15-1.16-.13-2.73,2.29-4.14-2.46-.29-3.37-1.2-1.79-2.69,1.58-.86,1.52-1.68,1.42-2.19-.88-.86-1.06-1.24-1.17-1.56.23-.1.47-.24.69-.4,2.36,2.43,7.62,6.84,7.93,7.05.17.13.75.51.86.51.06,0-.07-.16-.65-.69-1.47-1.29-7.7-7.26-7.7-7.26.19-.2.36-.42.49-.67.73.7,1.54,1.1,2.14,1.1.46,0,.81-.22.98-.67.32-.91.69-1.52,1.45-1.52.13,0,.28.01.45.06,1.07.27.72.87.72,1.03s-.17,1.52-.17,1.65c0,.06.08.13.17.13s.19-.05.26-.18c.17-.29.44-2.9,4.09-2.9h.27c.24,1.43-.65,3.87-1.92,4.56-1.28.7-3.09.85-3.25.89,3.04.43,2.91.6,3.62,1.31.5.49.87.95,1.25,2.38,2.07-2.69,3.31-6.06,3.31-9.73s-1.2-6.92-3.21-9.6c-.43,1.75-.82,2.23-1.36,2.77-.72.71-.58.88-3.62,1.31.16.04,1.98.2,3.25.88,1.27.7,2.16,3.13,1.92,4.56h-.27c-3.65,0-3.91-2.61-4.09-2.89-.07-.14-.17-.18-.26-.18-.09,0-.17.06-.17.13,0,.12.17,1.47.17,1.63,0,.17.35.78-.72,1.03-.17.05-.32.06-.45.06-.76,0-1.13-.6-1.45-1.52-.17-.46-.52-.67-.98-.67-.6,0-1.41.39-2.14,1.09-.13-.25-.3-.46-.49-.66,0,0,6.23-5.98,7.7-7.28.58-.52.71-.68.65-.68-.11,0-.69.37-.86.51-.31.21-5.56,4.62-7.93,7.06-.22-.16-.45-.3-.69-.41.11-.31.29-.69,1.17-1.56.11-.52.16-1.33-1.42-2.19-1.58-1.5-.67-2.39,1.79-2.69-2.43-1.4-2.14-2.97-2.29-4.14h.05c.36,0,.66-.17,1.43-.25h.25c1.06,0,1.73.56,2.19,1.02,1.08,1.08,1.43,2.78,1.51,4.41.9-.96.22-2.03,1.87-3.4.8-.67,1.49-.9,2.2-1.02-2.7-2.09-6.08-3.33-9.75-3.33s-7.17,1.28-9.88,3.42c.54.16,1.09.4,1.72.93,1.64,1.36.95,2.44,1.85,3.4.09-1.63.43-3.33,1.52-4.41.45-.47,1.12-1.02,2.19-1.02h.24c.78.08,1.08.25,1.44.25h.05c-.15,1.17.13,2.74-2.29,4.14,2.45.3,3.37,1.2,1.78,2.69-1.58.86-1.53,1.66-1.41,2.19.87.87,1.06,1.25,1.17,1.56-.26.11-.48.25-.7.41-2.35-2.44-7.61-6.85-7.92-7.06-.17-.14-.75-.51-.86-.51-.07,0,.06.16.65.68,1.47,1.29,7.7,7.28,7.7,7.28-.18.19-.36.41-.49.66-.72-.7-1.52-1.09-2.14-1.09-.45,0-.81.21-.97.67-.33.91-.69,1.52-1.46,1.52-.13,0-.28-.02-.44-.06-1.08-.25-.74-.86-.74-1.03,0-.16.17-1.51.17-1.63,0-.07-.07-.13-.17-.13-.08,0-.17.04-.26.18-.16.28-.44,2.89-4.09,2.89h-.26c-.24-1.43.64-3.86,1.92-4.56,1.26-.68,3.07-.84,3.24-.88-3.03-.42-2.91-.6-3.62-1.31-.46-.48-.83-.88-1.19-2.12-1.73,2.55-2.75,5.62-2.75,8.95s1.07,6.53,2.86,9.12c.33-.96.66-1.35,1.07-1.77.72-.71.59-.89,3.62-1.31-.17-.04-1.98-.2-3.24-.89-1.28-.68-2.17-3.12-1.92-4.56h.26c3.65,0,3.93,2.61,4.09,2.9.09.13.17.18.26.18.1,0,.18-.07.18-.13,0-.13-.17-1.48-.17-1.65s-.34-.77.74-1.03c.15-.05.3-.06.44-.06.76,0,1.12.61,1.46,1.52.17.45.53.67.97.67.61,0,1.42-.4,2.14-1.1.13.25.31.48.49.67,0,0-6.23,5.97-7.7,7.26-.59.53-.72.69-.65.69.11,0,.69-.38.86-.51.31-.21,5.57-4.63,7.92-7.05.22.16.44.29.7.4-.12.32-.3.7-1.17,1.56-.12.51-.17,1.33,1.41,2.19,1.59,1.49.67,2.4-1.78,2.69,2.42,1.41,2.14,2.97,2.29,4.14h-.05c-.36,0-.66.17-1.44.24-.08,0-.16.01-.24.01-1.07,0-1.74-.57-2.19-1.02-1.09-1.08-1.43-2.79-1.52-4.4-.91.94-.22,2.03-1.85,3.38-.46.38-.87.62-1.26.77,2.64,1.94,5.9,3.07,9.42,3.07s6.61-1.08,9.22-2.92c-.52-.15-1.07-.41-1.67-.92"/>
        <path class="cls-2" d="m103.41,12.97c-.74-.12-1.35.22-1.51,1.01-.07.37,0,.64.08.91.03.1.04.15,0,.21-.04.05-.41.02-.45,0-.04-.04.12.45.29.49.14.03.41-.13.44-.1.16.24.37.43.58.57-.25.03-.51.13-.76.27-.04.03-.23-.22-.37-.26-.17-.03-.52.35-.46.34.04-.01.39.14.4.2,0,.06,0,.1-.08.18-.2.2-.36.44-.46.8-.16.79.25,1.34.98,1.54.24.08.57.04.66.04.45-.09.83-.43.78-.39-.17.1-.43.22-.91.11-.89-.2-1.32-.83-1.15-1.55.04-.19.11-.34.22-.43.08-.07.13-.1.3-.07.29.06.39.72.45.72.31,0,.49-.17.56-.39.04-.21-.07-.47-.43-.57-.14-.04-.49-.07-.43-.1.19-.15.52-.23.93-.12.67.15,1.19.72,1.04,1.38-.07.31-.34.49-.67.42-.18-.03-.79-.15-.83.03-.04.18.12.35.35.4.47.11,1.04-.4,1.08-.34.07.13.19.21.36.22,0-.35.11-.81.13-.93.1-.46-.09-.93-.46-1.2.45-.11.82-.44.92-.93.02-.11.09-.71.26-.79.07-.03-.32-.16-.42-.06-.05.03-.39-.66-.86-.75-.23-.05-.43.03-.48.23-.04.17.57.31.74.35.33.06.51.35.44.67-.12.65-.84.97-1.51.84-.41-.07-.69-.28-.8-.49-.05-.06.28.06.43.08.38.08.57-.12.63-.34.03-.22-.07-.45-.35-.58-.06-.02-.43.53-.71.47-.18-.05-.19-.09-.25-.19-.06-.13-.06-.3-.02-.48.13-.75.78-1.14,1.68-.96.47.1.85.5.84.44-.05-.17-.62-.69-.63-.69-.25-.18-.6-.19-.6-.19"/>
        <path class="cls-2" d="m101.92,19.24c-.74.11-1.23.61-1.16,1.42.05.36.18.63.35.85.06.08.08.13.06.18-.02.08-.39.16-.42.15-.07-.03.24.39.41.38.15-.02.36-.25.39-.22.22.18.49.31.74.38-.24.11-.46.27-.66.49-.03.04-.29-.16-.43-.15-.17.01-.39.48-.33.46.02-.01.39.01.43.06.03.06.01.11-.03.2-.12.25-.21.53-.19.9.07.81.62,1.21,1.38,1.19.25.02.56-.13.64-.16.4-.21.67-.65.63-.6-.11.14-.33.34-.83.37-.91.07-1.51-.4-1.55-1.15-.02-.18,0-.35.09-.46.04-.09.08-.15.26-.16.29-.03.58.56.64.55.3-.1.42-.3.41-.53,0-.23-.18-.45-.57-.42-.14.01-.49.08-.44.02.14-.18.44-.35.85-.38.68-.05,1.36.34,1.4,1.02.02.32-.18.58-.53.6-.18.02-.79.09-.78.27.03.19.21.3.46.27.48-.04.88-.68.94-.63.1.09.24.13.42.09-.11-.33-.14-.81-.15-.92-.04-.5-.37-.88-.8-1.03.41-.23.65-.66.62-1.15-.01-.12-.13-.71.02-.84.06-.03-.35-.04-.43.06-.04.06-.54-.51-1.03-.46-.23.02-.41.16-.39.35,0,.18.61.15.81.13.35-.03.58.19.61.49.08.68-.51,1.19-1.19,1.25-.42.04-.73-.06-.91-.24-.06-.04.29-.02.44-.04.39-.04.51-.29.49-.51-.03-.23-.18-.41-.5-.46-.07,0-.25.63-.54.66-.18.02-.23-.03-.29-.1-.1-.1-.15-.27-.16-.45-.09-.74.43-1.33,1.34-1.42.49-.04.97.24.94.17-.09-.16-.79-.45-.8-.46-.31-.09-.64-.02-.64-.02"/>
        <path class="cls-2" d="m102.46,25.73c-.66.36-.93,1.01-.58,1.74.18.33.39.53.63.67.08.05.12.09.12.15,0,.07-.3.29-.34.29-.07,0,.36.29.53.22.13-.06.23-.36.29-.34.27.08.54.1.81.08-.19.19-.34.44-.43.7-.03.05-.33-.04-.46.03-.15.06-.19.59-.15.54.02-.04.39-.15.44-.1.05.04.05.09.04.19-.03.29-.01.58.14.91.35.74,1.01.91,1.71.62.23-.09.49-.31.54-.38.3-.35.39-.85.37-.78-.06.17-.19.43-.63.64-.84.38-1.56.16-1.87-.53-.08-.16-.12-.33-.1-.46.03-.1.04-.17.19-.25.27-.12.75.32.81.29.25-.2.29-.44.19-.64-.09-.2-.33-.35-.69-.19-.13.06-.42.27-.4.19.06-.24.28-.49.65-.67.63-.29,1.4-.18,1.67.45.15.29.05.59-.28.75-.15.09-.7.35-.62.52.09.18.3.2.52.11.44-.21.58-.97.65-.93.11.05.26.02.41-.07-.21-.26-.41-.7-.47-.81-.22-.43-.65-.68-1.11-.66.29-.37.37-.85.15-1.3-.05-.09-.37-.61-.28-.78.04-.05-.34.08-.39.21-.01.07-.7-.29-1.12-.05-.22.1-.33.29-.25.47.09.15.64-.1.81-.17.31-.15.61-.05.75.25.32.58-.06,1.27-.67,1.58-.36.19-.7.2-.92.11-.07-.02.26-.13.4-.19.34-.19.38-.46.28-.66-.11-.2-.33-.32-.64-.25-.05.03,0,.69-.27.82-.15.08-.21.05-.31,0-.11-.07-.23-.2-.31-.37-.35-.67-.08-1.38.74-1.79.44-.22.99-.13.93-.18-.14-.11-.9-.16-.91-.16-.31.03-.59.21-.59.21"/>
        <path class="cls-2" d="m105.1,31.63c-.51.56-.58,1.26,0,1.84.27.25.53.37.81.44.09.03.14.05.16.11.02.06-.2.36-.24.38-.06.02.45.16.57.04.1-.09.11-.41.17-.41.28,0,.55-.07.81-.17-.13.23-.19.51-.21.79,0,.06-.32.06-.42.16-.11.12,0,.62.03.57,0-.04.33-.26.38-.22.07,0,.09.05.1.16.06.27.17.54.42.82.56.58,1.25.56,1.83.06.2-.14.35-.44.39-.52.18-.43.1-.93.1-.88,0,.18-.04.48-.39.81-.67.63-1.44.64-1.94.07-.13-.13-.2-.27-.23-.41-.02-.11-.02-.16.11-.28.21-.21.81.07.84.01.18-.27.14-.5,0-.68-.16-.16-.42-.22-.72.04-.09.11-.32.38-.32.3-.02-.24.12-.55.42-.84.51-.46,1.27-.59,1.72-.08.22.24.23.54-.03.8-.14.12-.57.56-.44.69.14.15.35.1.53-.07.35-.32.25-1.1.32-1.08.14,0,.26-.06.4-.2-.3-.18-.62-.53-.71-.61-.34-.36-.82-.46-1.26-.3.18-.44.09-.94-.25-1.29-.09-.09-.55-.46-.51-.66.01-.07-.29.18-.29.31,0,.08-.76-.04-1.1.3-.18.17-.22.38-.08.52.11.13.58-.29.7-.41.25-.24.58-.23.81,0,.47.47.32,1.23-.16,1.73-.29.29-.61.4-.85.38-.08,0,.21-.22.3-.32.29-.26.23-.53.07-.7-.16-.15-.41-.19-.68-.04-.05.04.21.65,0,.85-.12.13-.18.13-.29.11-.13-.03-.28-.12-.41-.25-.54-.52-.5-1.28.14-1.93.35-.36.9-.45.85-.46-.18-.06-.91.13-.92.13-.29.13-.51.39-.51.39"/>
        <path class="cls-2" d="m109.56,36.39c-.29.69-.1,1.37.62,1.71.34.16.62.17.91.14.1,0,.14,0,.18.06.05.04-.06.4-.08.43-.06.03.47,0,.54-.15.06-.14-.03-.44.02-.46.26-.09.5-.25.69-.43-.03.26,0,.55.08.8.02.06-.28.18-.35.31-.07.14.22.58.22.52,0-.03.22-.34.28-.34s.1.04.16.12c.15.23.35.46.67.62.72.37,1.35.1,1.72-.57.14-.21.2-.55.2-.62.02-.46-.21-.92-.2-.86.06.18.13.46-.11.9-.41.81-1.13,1.09-1.79.74-.17-.08-.3-.18-.37-.31-.05-.09-.06-.16.02-.31.13-.27.78-.21.8-.28.07-.3-.04-.51-.24-.62-.2-.1-.47-.07-.65.28-.06.13-.17.46-.2.39-.09-.23-.09-.56.1-.93.31-.62.99-.99,1.59-.67.28.13.4.45.26.75-.09.17-.35.73-.18.8.18.09.37-.02.47-.23.23-.43-.12-1.12-.05-1.14.14-.04.22-.14.29-.31-.33-.07-.76-.29-.87-.35-.44-.23-.94-.14-1.3.16.02-.47-.22-.9-.67-1.12-.11-.04-.67-.26-.71-.44,0-.08-.21.26-.16.4.01.06-.73.19-.94.65-.11.21-.07.44.1.51.16.08.44-.46.53-.62.15-.32.46-.41.75-.27.61.28.75,1.04.45,1.67-.17.37-.43.59-.67.65-.07.03.11-.27.18-.41.17-.36.02-.59-.18-.69-.21-.09-.45-.04-.65.2-.03.05.42.54.28.81-.07.16-.13.17-.23.19-.14.02-.31,0-.48-.1-.69-.3-.9-1.03-.52-1.87.2-.45.69-.71.63-.71-.19,0-.81.44-.81.44-.25.21-.35.55-.35.55"/>
        <path class="cls-2" d="m115.32,39.32c-.06.76.33,1.35,1.12,1.45.37.04.65-.03.91-.16.09-.03.14-.04.19,0,.06.04.07.41.04.44-.03.06.46-.14.48-.3.01-.14-.17-.41-.12-.44.22-.18.39-.4.52-.64.06.26.18.53.34.76.04.04-.22.24-.24.39-.02.16.39.5.38.43-.02-.04.09-.39.15-.41.08-.02.11,0,.19.06.22.19.48.33.84.39.79.13,1.31-.33,1.46-1.07.06-.24.01-.57-.02-.65-.11-.45-.48-.8-.45-.77.11.15.27.42.19.9-.15.91-.74,1.39-1.47,1.26-.18-.02-.35-.08-.44-.19-.07-.07-.11-.1-.09-.29.03-.29.69-.44.69-.5-.04-.31-.21-.49-.44-.53-.22-.03-.47.08-.54.46-.02.15-.02.5-.06.44-.17-.18-.26-.5-.18-.92.1-.67.63-1.24,1.3-1.12.33.04.52.3.47.64-.03.17-.1.79.08.81.2.02.34-.13.38-.37.08-.48-.47-1.03-.41-1.06.12-.08.18-.21.18-.4-.34.04-.81-.02-.93-.04-.49-.08-.93.15-1.18.54-.14-.45-.5-.79-.99-.85-.12,0-.71-.04-.81-.21-.03-.06-.13.32-.03.43.04.06-.64.43-.68.91-.04.24.06.44.26.46.17.03.27-.58.29-.76.06-.33.33-.54.63-.49.67.07,1.03.77.95,1.45-.06.4-.24.69-.43.82-.06.04.02-.3.06-.44.04-.38-.17-.57-.4-.6-.23-.03-.44.1-.55.39-.02.06.55.38.51.68-.03.17-.07.21-.16.26-.13.07-.28.07-.47.06-.75-.08-1.19-.7-1.08-1.61.06-.5.43-.89.38-.87-.18.06-.63.66-.64.66-.16.27-.16.61-.16.61"/>
        <path class="cls-2" d="m121.77,40.36c.2.72.76,1.15,1.54.97.36-.09.6-.25.8-.44.08-.08.12-.11.19-.08.06,0,.2.36.19.4,0,.06.39-.29.35-.45-.03-.15-.29-.33-.27-.37.15-.24.24-.51.29-.76.15.21.33.42.57.58.03.02-.13.3-.09.45.03.16.53.32.49.27-.03-.02-.04-.4,0-.45.06-.03.1-.03.2,0,.28.1.55.16.91.1.8-.16,1.12-.76,1.01-1.52-.02-.26-.19-.54-.23-.62-.26-.37-.74-.58-.68-.55.16.09.38.28.48.77.17.9-.21,1.55-.96,1.69-.17.04-.35.04-.47-.02-.1-.06-.16-.08-.19-.26-.06-.28.49-.65.48-.7-.14-.29-.36-.39-.59-.34-.22.05-.43.24-.36.62.04.14.15.48.1.43-.22-.1-.41-.39-.5-.78-.13-.68.17-1.39.84-1.53.31-.06.59.11.66.45.04.18.18.79.36.74.19-.04.27-.25.22-.48-.09-.47-.79-.8-.74-.85.07-.11.09-.26.03-.42-.3.15-.78.24-.9.26-.48.1-.82.46-.92.92-.29-.37-.73-.57-1.2-.46-.13.02-.7.21-.84.07-.04-.06,0,.35.11.42.06.04-.45.62-.35,1.09.06.24.21.39.41.35.18-.03.06-.65.02-.82-.06-.34.12-.61.42-.67.66-.16,1.23.37,1.39,1.03.09.4.02.74-.12.92-.04.07-.07-.28-.1-.43-.09-.38-.35-.47-.57-.43-.22.04-.38.23-.38.56,0,.05.66.16.71.46.03.17,0,.21-.07.29-.1.12-.25.18-.43.22-.73.17-1.36-.26-1.56-1.14-.11-.49.1-1,.06-.95-.15.11-.36.83-.37.84-.05.32.07.64.07.64"/>
        <path class="cls-2" d="m128.11,39.14c.42.62,1.07.86,1.77.45.33-.2.51-.43.63-.68.05-.08.07-.13.14-.13.06,0,.31.28.31.33,0,.07.26-.39.18-.53-.07-.13-.39-.22-.36-.26.07-.28.07-.57.03-.82.2.16.45.3.73.37.04.03-.03.33.04.45.09.15.61.16.55.11-.03-.02-.16-.37-.12-.41.03-.08.08-.08.19-.08.28.02.57-.02.9-.2.7-.39.83-1.07.5-1.75-.1-.22-.35-.45-.43-.51-.37-.28-.88-.33-.81-.32.17.05.45.16.68.6.44.79.29,1.55-.4,1.9-.15.1-.32.15-.45.12-.11,0-.16-.02-.26-.17-.14-.25.27-.78.23-.82-.21-.23-.46-.25-.65-.15-.2.12-.32.36-.15.7.09.13.3.4.22.39-.24-.05-.51-.25-.72-.61-.34-.61-.26-1.37.34-1.7.28-.15.59-.08.76.22.09.17.43.68.56.61.19-.11.2-.33.07-.54-.24-.43-1-.51-.97-.58.04-.13,0-.27-.09-.42-.25.23-.67.46-.78.53-.42.24-.62.68-.58,1.15-.38-.27-.88-.31-1.3-.07-.11.07-.58.42-.77.34-.07-.02.1.34.24.37.06,0-.23.72.01,1.13.13.22.32.32.48.21.16-.09-.13-.63-.22-.79-.17-.31-.08-.61.19-.79.57-.34,1.28-.01,1.64.58.21.34.25.68.17.92-.02.07-.14-.25-.22-.38-.2-.33-.49-.34-.69-.24-.19.13-.28.35-.19.65.01.06.67-.04.82.22.08.15.07.21.03.3-.05.13-.18.24-.34.33-.64.4-1.37.17-1.84-.61-.25-.42-.21-.98-.24-.92-.11.17-.09.92-.09.92.06.32.26.59.26.59"/>
        <path class="cls-2" d="m133.7,35.96c.6.47,1.31.47,1.83-.16.24-.27.33-.56.37-.83.02-.1.04-.15.1-.18.05-.03.38.18.4.21.02.06.12-.47,0-.57-.12-.09-.43-.09-.43-.13-.04-.29-.13-.55-.25-.79.25.1.53.15.81.14.05,0,.08.32.18.41.14.11.63-.05.58-.08-.04-.01-.28-.3-.26-.36.02-.07.07-.08.16-.11.28-.09.54-.22.78-.5.54-.59.44-1.27-.1-1.81-.17-.19-.47-.32-.55-.35-.44-.14-.94-.03-.88-.03.18-.01.48,0,.85.34.68.6.76,1.37.24,1.93-.12.13-.25.23-.39.26-.11.02-.16.02-.3-.09-.22-.18,0-.81-.05-.84-.28-.16-.53-.1-.68.06-.13.17-.18.43.1.69.12.11.4.3.32.31-.23.03-.56-.06-.87-.35-.52-.45-.69-1.21-.25-1.69.21-.25.55-.27.8-.06.14.12.62.51.73.39.13-.14.07-.37-.11-.52-.36-.33-1.11-.17-1.1-.23,0-.15-.08-.26-.22-.36-.16.3-.48.65-.56.75-.33.37-.37.86-.18,1.29-.45-.13-.92-.01-1.26.35-.08.09-.42.58-.61.57-.08-.01.2.28.34.26.06,0,0,.76.38,1.05.18.17.4.21.53.05.12-.13-.32-.55-.46-.66-.27-.23-.29-.56-.08-.8.44-.52,1.2-.43,1.73,0,.32.27.46.59.46.83,0,.07-.24-.2-.34-.3-.29-.24-.56-.16-.71,0-.14.17-.16.42.03.68.03.04.62-.26.84-.07.13.11.13.19.12.28,0,.15-.08.29-.21.44-.48.59-1.24.6-1.94.02-.39-.32-.51-.85-.53-.79-.05.18.21.89.21.9.14.29.42.46.42.46"/>
        <path class="cls-2" d="m106.91,7.53c-.66-.37-1.36-.26-1.77.43-.19.34-.23.62-.23.89,0,.11-.02.16-.07.19-.04.04-.4-.11-.42-.13-.04-.06-.04.47.09.56.13.07.44.02.45.06.07.27.2.53.36.74-.26-.06-.54-.06-.83,0-.04,0-.12-.29-.25-.37-.15-.09-.61.16-.55.17.04,0,.32.25.31.31,0,.06-.05.1-.13.15-.26.13-.51.29-.71.6-.43.68-.23,1.34.39,1.78.2.15.52.24.61.25.47.06.93-.12.88-.1-.19.04-.47.06-.89-.2-.77-.49-.97-1.23-.55-1.86.1-.16.22-.27.35-.32.09-.04.15-.06.3.04.27.16.12.8.2.82.28.12.51.03.64-.17.12-.19.12-.47-.21-.69-.12-.07-.43-.22-.36-.23.22-.07.56-.03.91.21.57.37.86,1.07.49,1.64-.17.28-.48.36-.78.18-.16-.1-.69-.41-.78-.27-.11.17-.01.37.2.51.41.26,1.11-.03,1.13.03.03.14.11.26.27.33.11-.33.37-.73.43-.82.27-.42.23-.92-.02-1.3.46.06.91-.14,1.17-.55.07-.1.33-.64.52-.65.08,0-.23-.25-.38-.22-.06.02-.12-.74-.54-.99-.21-.13-.43-.12-.54.05-.09.14.42.49.57.59.3.17.37.49.19.76-.35.59-1.12.63-1.69.27-.36-.21-.55-.48-.6-.72-.01-.08.27.15.39.22.33.21.58.08.7-.12.11-.19.1-.44-.13-.65-.05-.04-.57.35-.82.18-.16-.08-.16-.15-.17-.25-.02-.14.04-.32.13-.46.38-.66,1.13-.79,1.92-.34.42.27.63.77.65.71.01-.18-.35-.86-.37-.86-.19-.25-.5-.39-.5-.39"/>
        <path class="cls-2" d="m112.01,3.62c-.5-.58-1.19-.71-1.83-.21-.28.24-.42.48-.52.75-.03.1-.05.13-.12.16-.06,0-.34-.24-.34-.28-.03-.07-.21.43-.12.56.1.12.41.17.41.22-.03.28,0,.56.08.82-.22-.15-.49-.26-.77-.28-.04,0-.01-.33-.1-.44-.11-.14-.63-.06-.57-.04.03.02.21.35.19.41-.04.06-.08.07-.18.09-.3.03-.56.11-.87.33-.64.49-.68,1.17-.25,1.79.14.23.41.41.48.46.41.22.91.2.84.2-.18-.03-.46-.1-.76-.49-.55-.72-.49-1.5.13-1.94.15-.11.3-.18.43-.18.11,0,.17,0,.28.14.18.22-.16.79-.11.85.24.19.49.18.68.05.17-.14.27-.4.03-.72-.08-.12-.32-.35-.26-.34.24,0,.53.16.79.49.42.54.44,1.32-.1,1.73-.25.19-.58.16-.8-.11-.11-.14-.5-.62-.63-.5-.17.11-.14.33,0,.53.29.39,1.05.37,1.04.43-.01.13.03.26.15.4.23-.26.6-.55.7-.62.39-.31.53-.78.42-1.23.43.21.92.19,1.3-.11.1-.08.52-.5.71-.44.07.02-.15-.32-.29-.33-.06,0,.14-.74-.16-1.12-.15-.2-.36-.27-.51-.13-.14.09.23.59.35.74.2.27.17.59-.09.79-.53.42-1.27.2-1.7-.33-.25-.32-.34-.64-.3-.89.02-.07.19.23.29.34.25.31.52.28.7.14.17-.14.23-.39.1-.66-.02-.06-.66.13-.84-.1-.11-.14-.1-.2-.07-.3.03-.14.14-.27.29-.38.57-.49,1.33-.35,1.91.35.31.38.34.95.37.88.08-.16-.04-.91-.05-.92-.08-.31-.33-.53-.33-.53"/>
        <path class="cls-2" d="m118.02,1.42c-.3-.69-.91-1.04-1.66-.75-.35.14-.57.34-.74.56-.07.08-.1.11-.17.11-.06,0-.25-.33-.25-.38.01-.06-.33.35-.26.5.04.13.32.28.3.32-.11.27-.16.54-.16.8-.17-.2-.4-.37-.64-.51-.05-.02.08-.3.02-.44-.05-.16-.56-.26-.52-.21.03.04.1.39.05.44-.05.03-.09.03-.19.03-.28-.05-.57-.07-.93.05-.76.26-1,.91-.79,1.64.06.25.26.5.32.58.32.34.79.48.75.44-.17-.07-.42-.24-.58-.7-.29-.86,0-1.56.71-1.79.18-.06.34-.09.48-.04.1.02.15.05.21.22.1.28-.39.72-.37.76.17.27.41.35.63.27.21-.09.38-.29.25-.66-.05-.14-.22-.45-.14-.42.23.09.46.33.6.72.23.64.01,1.39-.63,1.61-.29.11-.59-.02-.71-.35-.06-.17-.29-.74-.45-.69-.19.06-.24.28-.16.51.16.46.9.67.87.74-.07.12-.06.27,0,.42.3-.19.76-.33.87-.39.46-.16.74-.55.78-1.03.34.33.81.47,1.26.28.12-.05.66-.29.82-.18.05.04-.04-.35-.17-.41-.06-.02.35-.67.19-1.12-.09-.23-.26-.36-.45-.29-.16.06.04.64.09.82.13.33-.03.61-.31.74-.64.23-1.28-.21-1.52-.85-.15-.39-.13-.73-.02-.92.03-.08.11.26.17.39.14.36.42.43.62.35.2-.08.35-.29.31-.59-.02-.06-.67-.09-.78-.36-.06-.17-.04-.22.03-.31.08-.12.21-.21.39-.27.7-.29,1.38.07,1.71.93.17.45.03.99.09.95.12-.16.24-.89.24-.9,0-.33-.16-.62-.16-.62"/>
        <path class="cls-2" d="m124.42,1.36c-.06-.75-.52-1.27-1.32-1.25-.38.02-.65.14-.89.29-.08.05-.13.06-.18.03-.07-.01-.13-.39-.11-.42.02-.06-.43.22-.42.38.01.15.23.38.2.41-.2.2-.33.45-.42.71-.1-.25-.25-.5-.45-.68-.03-.05.2-.28.2-.43-.03-.16-.47-.43-.44-.37.01.04-.04.42-.1.44-.06.04-.1,0-.18-.04-.26-.13-.52-.25-.89-.25-.81,0-1.26.53-1.29,1.28-.02.25.08.57.12.65.18.42.6.72.55.68-.12-.12-.31-.36-.31-.84,0-.92.52-1.49,1.27-1.49.19,0,.36.04.46.13.1.05.14.09.14.28,0,.29-.61.53-.6.6.07.31.28.44.5.45.23,0,.46-.15.46-.54,0-.14-.05-.49,0-.43.18.14.33.45.33.87,0,.69-.44,1.34-1.11,1.31-.32.02-.56-.21-.56-.57,0-.17-.03-.78-.21-.78-.2,0-.32.19-.31.42,0,.49.62.94.57.98-.1.1-.14.22-.12.41.33-.09.81-.08.93-.09.49,0,.88-.29,1.08-.73.2.42.61.7,1.1.68.12,0,.73-.07.84.08.03.07.07-.33-.03-.42-.05-.05.56-.52.55-1.01-.01-.25-.14-.42-.34-.42-.17,0-.19.62-.18.82,0,.34-.23.58-.54.58-.67.02-1.13-.61-1.16-1.29,0-.43.11-.73.3-.89.04-.06.01.29.01.44.02.39.25.53.47.52.23,0,.42-.15.49-.45.01-.07-.6-.3-.62-.59,0-.18.04-.22.12-.28.11-.1.29-.13.46-.14.76-.03,1.28.53,1.32,1.44.02.48-.3.93-.23.9.16-.08.51-.74.52-.76.11-.3.05-.64.05-.64"/>
        <path class="cls-2" d="m130.48,3.04c.11-.74-.22-1.35-1.01-1.52-.37-.07-.65-.02-.92.07-.1.05-.13.05-.2,0-.04-.03-.04-.39,0-.43.04-.06-.45.11-.49.28-.03.14.13.41.09.44-.24.15-.43.36-.57.58-.04-.26-.13-.52-.28-.77-.03-.04.23-.23.27-.37.03-.16-.35-.52-.34-.45.02.04-.12.39-.18.41-.06.01-.11-.02-.18-.08-.21-.19-.46-.36-.81-.45-.79-.17-1.34.25-1.53.97-.09.24-.06.58-.04.65.09.46.42.84.39.78-.11-.15-.24-.41-.11-.89.19-.89.82-1.33,1.55-1.15.19.03.34.11.43.22.07.08.1.13.06.3-.05.28-.71.39-.71.45,0,.32.16.51.39.56.22.04.47-.05.57-.44.02-.14.05-.48.07-.43.15.19.23.53.13.94-.15.67-.72,1.2-1.37,1.04-.31-.07-.5-.33-.42-.68.03-.18.15-.78-.02-.82-.21-.05-.35.11-.41.35-.11.48.39,1.05.33,1.08-.11.06-.18.19-.2.36.34,0,.81.11.93.12.48.12.93-.07,1.21-.45.1.45.43.82.92.92.12.03.7.07.79.28.03.06.14-.32.07-.44-.04-.05.66-.38.74-.85.06-.25-.02-.45-.22-.49-.18-.04-.31.55-.35.74-.06.34-.35.51-.66.45-.66-.13-.98-.85-.84-1.51.08-.41.28-.68.49-.8.06-.04-.06.29-.08.44-.08.38.13.56.34.62.22.05.45-.06.58-.35.02-.04-.53-.42-.47-.7.03-.18.09-.2.17-.25.14-.05.32-.05.49-.01.74.12,1.13.78.96,1.67-.09.49-.5.87-.44.85.18-.05.67-.61.68-.62.18-.26.2-.6.2-.6"/>
        <path class="cls-2" d="m135.61,7.25c.42-.63.37-1.33-.28-1.81-.31-.21-.58-.28-.86-.32-.09,0-.15-.02-.18-.08-.03-.06.14-.4.18-.4.05-.05-.46-.1-.57.04-.07.12-.05.44-.11.45-.27.04-.54.15-.76.3.08-.26.1-.54.08-.82-.01-.05.3-.09.38-.21.11-.13-.09-.63-.11-.56,0,.03-.28.3-.34.29-.07-.02-.09-.06-.13-.16-.1-.27-.24-.52-.54-.74-.65-.51-1.31-.35-1.79.22-.19.19-.3.5-.32.58-.11.46.05.94.02.88-.02-.18-.03-.48.27-.86.57-.72,1.33-.86,1.92-.39.14.11.25.24.29.37.03.11.03.16-.06.3-.18.24-.82.06-.85.12-.13.28-.05.52.11.66.19.12.46.15.71-.15.09-.12.26-.42.27-.35.06.24-.03.57-.28.89-.43.54-1.17.77-1.69.36-.26-.2-.31-.51-.1-.8.1-.14.46-.64.33-.74-.15-.13-.37-.05-.51.14-.3.38-.08,1.11-.16,1.11-.13.02-.25.1-.34.25.31.13.69.43.79.51.39.31.89.32,1.31.09-.11.46.05.93.44,1.23.09.07.62.38.62.57,0,.07.26-.22.23-.36,0-.07.76-.06,1.03-.46.15-.19.16-.41,0-.53-.13-.09-.51.37-.64.52-.21.29-.53.33-.78.12-.55-.38-.54-1.16-.12-1.71.23-.34.53-.51.77-.52.07,0-.16.24-.25.36-.23.32-.13.58.03.71.2.12.44.13.68-.07.04-.04-.31-.6-.13-.84.11-.14.16-.14.27-.14.14,0,.3.07.45.18.62.44.69,1.19.15,1.93-.29.4-.81.57-.74.59.17.04.86-.27.88-.27.27-.19.43-.48.43-.48"/>
        <path class="cls-2" d="m139.23,12.55c.6-.45.78-1.14.34-1.79-.22-.3-.46-.47-.72-.58-.09-.04-.13-.08-.15-.14,0-.07.27-.33.31-.34.06,0-.41-.23-.55-.13-.12.08-.2.4-.24.38-.3-.04-.57-.03-.83.03.15-.21.27-.47.34-.75,0-.05.32,0,.44-.07.14-.1.12-.63.08-.56-.02.03-.36.18-.42.15-.06-.04-.08-.08-.08-.19,0-.27-.07-.57-.27-.88-.45-.68-1.13-.76-1.78-.37-.23.11-.43.38-.48.45-.25.38-.27.89-.25.83.03-.18.12-.48.53-.74.76-.5,1.52-.38,1.92.26.11.16.18.32.16.45,0,.1,0,.17-.16.26-.23.17-.78-.21-.82-.17-.23.24-.23.49-.12.67.12.19.38.31.72.1.12-.09.38-.32.36-.25-.03.25-.21.52-.55.75-.59.38-1.35.36-1.72-.21-.18-.27-.11-.6.17-.79.15-.1.66-.45.55-.6-.11-.17-.32-.17-.53-.03-.4.27-.44,1.03-.51,1.02-.13-.04-.27,0-.4.11.24.23.51.64.57.75.27.41.73.57,1.19.51-.24.4-.25.89.03,1.29.06.11.46.56.39.73-.03.08.32-.1.34-.25.02-.07.73.18,1.13-.09.21-.14.29-.35.17-.51-.1-.14-.63.19-.77.3-.3.18-.61.11-.79-.15-.39-.55-.12-1.27.45-1.67.34-.24.67-.3.9-.24.08.02-.24.17-.36.26-.32.22-.31.5-.18.68.13.18.36.28.65.15.06-.02-.09-.65.16-.83.14-.09.2-.09.31-.04.13.04.25.16.35.3.44.61.27,1.37-.48,1.89-.4.29-.96.28-.9.3.16.09.91.03.93.03.32-.06.55-.3.55-.3"/>
        <path class="cls-2" d="m140.92,18.76c.72-.24,1.11-.82.89-1.59-.1-.36-.29-.59-.48-.79-.08-.07-.1-.11-.09-.18,0-.06.35-.22.38-.22.07.01-.31-.35-.47-.31-.15.03-.31.31-.36.28-.25-.14-.52-.21-.79-.24.22-.16.41-.36.56-.61.03-.04.31.12.45.07.16-.04.3-.55.25-.51-.03.03-.4.07-.44.02-.04-.06-.04-.11-.01-.19.08-.28.11-.57.04-.93-.21-.78-.83-1.09-1.56-.93-.25.04-.53.22-.6.28-.37.27-.55.75-.53.7.09-.16.28-.4.76-.51.89-.22,1.56.14,1.73.87.05.17.06.33,0,.47-.04.1-.06.16-.23.19-.29.08-.68-.45-.73-.42-.28.14-.36.36-.32.59.05.22.27.4.64.32.15-.04.47-.17.43-.11-.1.22-.37.44-.77.54-.66.17-1.39-.11-1.55-.77-.08-.31.07-.59.41-.68.19-.04.77-.22.73-.39-.06-.19-.26-.25-.49-.2-.47.12-.76.83-.81.79-.12-.08-.26-.09-.43-.02.17.29.27.77.31.88.12.48.5.8.97.88-.37.29-.54.77-.4,1.24.03.11.23.67.11.81-.04.06.36,0,.42-.13.02-.06.63.41,1.1.29.22-.06.37-.23.32-.43-.04-.16-.65-.01-.82.02-.33.1-.61-.07-.69-.38-.19-.64.29-1.25.96-1.44.4-.11.74-.06.94.08.06.03-.29.08-.42.11-.38.1-.46.38-.41.6.07.21.27.35.58.35.06,0,.13-.65.42-.75.17-.04.22,0,.3.06.13.08.2.24.25.41.22.72-.19,1.36-1.07,1.63-.48.13-1-.06-.96,0,.12.14.86.31.87.31.32.04.62-.09.62-.09"/>
        <path class="cls-2" d="m140.58,25.2c.77-.02,1.31-.46,1.33-1.27.01-.35-.09-.63-.23-.88-.05-.08-.07-.13-.04-.19.03-.06.41-.12.44-.09.06.02-.19-.43-.36-.44-.15,0-.39.2-.42.17-.2-.2-.44-.35-.68-.46.25-.09.49-.22.7-.41.04-.02.26.18.41.19.17,0,.44-.43.39-.41-.03.02-.41-.06-.43-.12-.03-.07-.01-.1.05-.18.16-.25.28-.51.3-.88.04-.81-.47-1.28-1.22-1.35-.26-.04-.57.05-.66.09-.43.16-.74.57-.7.52.15-.12.38-.32.87-.29.92.06,1.47.61,1.42,1.35,0,.18-.05.36-.14.46-.07.1-.12.13-.28.12-.3,0-.52-.63-.58-.63-.31.06-.45.27-.48.48,0,.23.13.47.53.49.14,0,.49-.03.44.02-.17.18-.47.31-.9.28-.68-.03-1.29-.51-1.26-1.17.01-.33.25-.55.59-.54.18,0,.8.01.8-.16,0-.21-.17-.33-.4-.34-.49-.01-.97.59-1.01.52-.1-.1-.23-.15-.41-.15.08.34.05.84.05.95-.02.5.25.91.67,1.12-.43.18-.73.57-.74,1.07,0,.12.03.72-.13.82-.06.03.33.08.44-.01.05-.06.49.58.97.59.25,0,.43-.11.44-.31,0-.17-.61-.22-.79-.22-.34-.02-.56-.26-.54-.57,0-.67.65-1.1,1.34-1.1.42.01.72.17.87.35.06.06-.29,0-.44,0-.39-.02-.54.21-.56.44.02.22.14.43.45.51.06,0,.31-.59.62-.59.18,0,.21.05.27.13.08.12.11.29.11.47,0,.76-.59,1.25-1.49,1.24-.49-.01-.93-.34-.91-.28.08.16.73.56.73.56.29.12.62.09.62.09"/>
        <path class="cls-2" d="m138.02,31.16c.71.24,1.39.02,1.67-.74.13-.34.13-.64.09-.92-.02-.1-.02-.13.03-.19.04-.04.41.04.43.07.05.04-.03-.48-.2-.53-.13-.06-.43.06-.45.02-.11-.27-.28-.49-.48-.67.27,0,.54-.03.8-.14.05-.02.18.27.32.32.15.07.57-.26.51-.26-.04.02-.37-.19-.37-.24,0-.07.04-.12.12-.17.23-.17.43-.38.58-.72.31-.74-.01-1.35-.69-1.68-.21-.13-.55-.14-.64-.14-.46,0-.9.27-.84.25.17-.07.46-.15.91.04.84.35,1.16,1.04.87,1.73-.07.17-.18.31-.3.38-.08.06-.14.09-.29.03-.28-.11-.28-.78-.34-.79-.3-.06-.52.08-.6.28-.08.22-.03.48.32.64.14.06.47.15.41.18-.21.11-.55.12-.94-.05-.63-.26-1.04-.92-.78-1.54.13-.29.41-.43.74-.29.16.06.74.28.8.12.08-.19-.04-.37-.27-.46-.44-.19-1.1.2-1.12.15-.05-.14-.15-.22-.34-.28-.05.33-.23.77-.28.88-.2.47-.08.94.24,1.29-.46.02-.88.3-1.06.75-.05.11-.21.69-.4.73-.07,0,.29.2.42.13.06-.03.25.71.7.88.23.09.45.06.52-.13.06-.17-.5-.42-.66-.48-.33-.13-.45-.43-.33-.72.24-.64,1-.82,1.64-.58.39.16.62.41.7.63.03.06-.28-.09-.41-.16-.37-.13-.6.02-.68.23-.07.22,0,.45.25.63.04.02.5-.45.77-.33.16.07.19.11.21.23.04.12,0,.29-.06.48-.25.69-.97.96-1.82.64-.46-.18-.77-.64-.77-.57.03.19.5.76.51.78.22.21.56.3.56.3"/>
        <path class="cls-3" d="m6.61,58.8h1.66c1.75,0,3.18-.27,4.29-.76,1.13-.51,1.93-1.23,2.43-2.16.5-.94.75-2.09.75-3.42,0-1.14-.22-2.23-.68-3.33-.44-1.06-1.21-1.97-2.29-2.72-1.07-.73-2.52-1.1-4.35-1.1-.74,0-1.35.06-1.82.18v13.31Zm-5.05-13.84h-.4v-.4h9.43c1.62,0,2.32.25,3.46.75,1.13.51,2.01,1.14,2.64,1.9.62.77,1.08,1.6,1.35,2.46.27.86.41,1.71.41,2.53,0,1.07-.22,2.08-.67,3.05-.44.97-1.12,1.82-2.04,2.5-.91.71-2.06,1.18-3.43,1.44v.07c1.74.85,3.35,2.53,4.82,5.05l2.64,4.46c1.19,1.99,2.14,3.25,2.86,3.77.74.54,1.45.84,2.14.9v.32h-4.64c-.23-.29-.44-.58-.64-.85-.19-.27-.41-.55-.64-.86-.13-.2-.33-.5-.57-.89-.27-.42-.41-.64-.47-.7l-3.49-5.75c-.7-1.18-1.41-2.13-2.15-2.87-.74-.74-1.43-1.26-2.06-1.58-.63-.32-1.21-.51-1.71-.6-.51-.07-1.11-.11-1.79-.11v10.68c0,2.07,1.05,3.15,3.16,3.21v.32H1.16v-.32c.58-.02,1.09-.14,1.55-.33.44-.19.82-.51,1.12-.99.29-.48.44-1.11.44-1.89v-22.1c0-1.17-.28-1.99-.85-2.46-.56-.48-1.19-.72-1.86-.72"/>
        <path class="cls-3" d="m253.08,44.44v.34c-.97,0-1.84.22-2.6.61-.77.39-1.36.82-1.79,1.25-.43.42-.88.95-1.38,1.55l-7.92,10.29v11.73c0,1.05.34,1.84,1.05,2.36.7.52,1.54.79,2.54.82v.31h-10.02v-.31c1.03-.03,2.17-.3,2.78-.8.61-.52.92-1.3.92-2.38v-11.23l-8.28-11.17c-.9-1.21-1.67-2.01-2.39-2.4-.7-.39-1.95-.61-3.15-.63v-.34h11.27v.34c-1.19.03-1.94.26-2.26.68-.34.43-.51.82-.51,1.18,0,.42.29,1.03.86,1.78l6.78,9.06,6.34-8.14c.93-1.22,1.38-2.17,1.38-2.8,0-.46-.12-.81-.37-1.05-.23-.25-.49-.43-.74-.5-.25-.07-.52-.14-.8-.2v-.34h8.29Z"/>
        <path class="cls-3" d="m100.2,73.45h.4c.72,0,1.34-.27,1.9-.83.54-.56.83-1.36.83-2.37v-22.05c0-1.21-.31-2.07-.92-2.53-.62-.49-1.35-.73-2.19-.75v-.34h8.67v.34c-.81.02-1.54.26-2.17.72-.64.46-.96,1.32-.96,2.56v21.33c0,1.26.32,2.14.96,2.63.63.49,2.33.74,3.78.74h2.52c1.09,0,1.97-.13,2.63-.41.66-.25,1.18-.66,1.56-1.2.38-.54.77-1.3,1.16-2.3h.33l-1.1,4.79h-17.37v-.32Z"/>
        <path class="cls-3" d="m147.05,50.55h-.36c-.2-1.36-.9-2.56-2.07-3.58-1.17-1.03-2.7-1.53-4.63-1.53-1.26,0-2.35.25-3.33.77-.98.5-1.73,1.2-2.26,2.07-.52.87-.8,1.89-.8,3.01,0,.88.16,1.67.48,2.34.31.68.77,1.28,1.39,1.8.63.53,1.35,1.02,2.19,1.46.83.45,1.97,1.02,3.39,1.71,2.4,1.14,4.26,2.26,5.58,3.39,1.32,1.14,1.99,2.67,1.99,4.63,0,1.2-.36,2.35-1.07,3.45-.72,1.12-1.8,2.03-3.23,2.76-1.45.72-3.24,1.06-5.38,1.06-1.34,0-2.53-.12-3.55-.37-1.03-.25-2.08-.6-3.14-1.04-.45-.11-.74-.18-.91-.18-.31,0-.51.09-.61.28-.1.19-.23.6-.38,1.25h-.38v-7.05h.38c.53,2.06,1.55,3.61,3.09,4.67,1.53,1.05,3.39,1.59,5.59,1.59,1.65,0,3.58-.28,4.59-.81.98-.53,1.67-1.19,2.06-1.95.38-.76.58-1.52.58-2.29,0-1.58-.56-2.87-1.68-3.87-1.11-1-2.79-2.02-5.06-3.06-1.56-.73-2.73-1.31-3.47-1.72-.75-.41-1.52-.94-2.31-1.59-.76-.64-1.38-1.4-1.83-2.29-.47-.89-.7-1.89-.7-3.04,0-1.32.41-2.59,1.23-3.81.8-1.19,1.95-2.17,3.44-2.9,1.49-.73,2.56-1.09,4.45-1.09,1.44,0,2.89.21,4.4.61.22.11.55.15.94.15.49,0,.82-.28,1-.83h.36v5.99Z"/>
        <path class="cls-3" d="m158.9,60.98h10.35l-5.31-13.52h-.08l-4.96,13.52Zm6.46-16.17l9.78,24.33c.52,1.25,1.01,2.18,1.46,2.75.46.56.9.91,1.32,1.06.43.15.96.25,1.61.31v.3h-9.75v-.3c1.09,0,1.94-.09,2.52-.28.6-.19.89-.68.89-1.48,0-.43-.15-1.01-.43-1.76-.05-.09-.09-.17-.09-.22l-2.89-7.56h-11.25l-2.58,6.99c-.35.96-.53,1.74-.53,2.31,0,.79.23,1.32.68,1.6.46.26,1.11.4,1.96.4v.3h-7.67v-.3c1.1-.09,1.97-.46,2.62-1.1.66-.64,1.23-1.61,1.71-2.91l9.19-24.44h1.47Z"/>
        <path class="cls-3" d="m77.59,60.98h10.34l-5.3-13.52h-.09l-4.95,13.52Zm6.45-16.17l9.79,24.33c.52,1.25.99,2.18,1.46,2.75.45.56.89.91,1.32,1.06.41.15.95.25,1.6.31v.3h-9.75v-.3c1.09,0,1.94-.09,2.52-.28.6-.19.9-.68.9-1.48,0-.43-.16-1.01-.43-1.76-.07-.09-.09-.17-.09-.22l-2.89-7.56h-11.26l-2.57,6.99c-.35.96-.53,1.74-.53,2.31,0,.79.22,1.32.7,1.6.44.26,1.1.4,1.93.4v.3h-7.65v-.3c1.1-.09,1.98-.46,2.62-1.1.66-.64,1.23-1.61,1.72-2.91l9.18-24.44h1.46Z"/>
        <path class="cls-3" d="m201.86,44.59v.34c-.85.07-1.53.34-2.08.73-.54.41-1.01.92-1.4,1.56-.39.64-.82,1.5-1.31,2.55-.07.07-.15.23-.23.48l-9.11,23.75-10.76-25.7c0-.06-.03-.14-.08-.23-.43-1.11-.99-1.91-1.69-2.42-.69-.51-1.56-.75-2.61-.73v-.34h9.75v.34c-.9.07-1.61.23-2.16.47-.56.23-.82.79-.82,1.67,0,.24.13.72.36,1.44.03.06.06.13.07.21.03.07.04.12.07.16l8.54,20.15h.07l7.33-18.77c.52-1.29.78-2.26.78-2.9,0-1.04-.26-1.68-.75-1.96-.51-.27-1.24-.44-2.22-.48v-.34h8.24Z"/>
        <path class="cls-3" d="m222.73,59.3c0-3.75-.58-6.68-1.73-8.79-1.14-2.12-2.48-3.54-3.98-4.25-1.5-.73-2.93-1.09-4.26-1.09-1.04,0-2.11.21-3.2.59-1.12.38-2.19,1.09-3.24,2.12-1.05,1.03-1.91,2.49-2.59,4.36-.68,1.87-1.02,4.17-1.02,6.93,0,2.43.28,4.53.83,6.34.56,1.81,1.34,3.28,2.33,4.41.97,1.16,2.06,1.97,3.24,2.47,1.18.5,2.41.76,3.67.76,1.15,0,2.31-.24,3.48-.7,1.17-.47,2.23-1.23,3.2-2.28.96-1.04,1.75-2.46,2.36-4.27.61-1.8.9-4.01.9-6.6m2.91-.08c0,2.63-.56,5.09-1.69,7.35-1.14,2.28-2.69,4.08-4.64,5.42-1.95,1.34-4.13,2.02-6.52,2.02s-4.58-.68-6.56-2.02c-1.99-1.34-3.56-3.15-4.71-5.43-1.14-2.29-1.71-4.76-1.71-7.45,0-2.06.34-3.99,1.02-5.8.68-1.82,1.62-3.39,2.85-4.75,1.23-1.34,2.62-2.39,4.18-3.12,1.57-.76,3.2-1.12,4.91-1.12s3.27.36,4.81,1.07c1.54.69,2.93,1.72,4.15,3.07,1.23,1.32,2.19,2.91,2.88,4.74.69,1.84,1.04,3.84,1.04,6.03"/>
        <path class="cls-3" d="m46.49,59.3c0-3.75-.58-6.68-1.73-8.79-1.15-2.12-2.48-3.54-3.99-4.25-1.51-.73-2.92-1.09-4.25-1.09-1.03,0-2.1.21-3.21.59-1.11.38-2.18,1.09-3.23,2.12-1.04,1.03-1.91,2.49-2.58,4.36-.68,1.87-1.01,4.17-1.01,6.93,0,2.43.28,4.53.83,6.34.55,1.81,1.34,3.28,2.32,4.41.97,1.16,2.05,1.97,3.23,2.47,1.19.5,2.41.76,3.68.76,1.15,0,2.3-.24,3.47-.7,1.16-.47,2.24-1.23,3.22-2.28.96-1.04,1.74-2.46,2.35-4.27.6-1.8.9-4.01.9-6.6m2.91-.08c0,2.63-.57,5.09-1.7,7.35-1.14,2.28-2.67,4.08-4.63,5.42-1.98,1.34-4.13,2.02-6.5,2.02s-4.58-.68-6.58-2.02c-2-1.34-3.56-3.15-4.71-5.43-1.15-2.29-1.72-4.76-1.72-7.45,0-2.06.34-3.99,1.03-5.8.68-1.82,1.63-3.39,2.85-4.75,1.22-1.34,2.61-2.39,4.18-3.12,1.57-.76,3.21-1.12,4.91-1.12s3.28.36,4.81,1.07c1.54.69,2.92,1.72,4.15,3.07,1.22,1.32,2.18,2.91,2.87,4.74.71,1.84,1.04,3.84,1.04,6.03"/>
        <path class="cls-3" d="m76.86,44.44v.34c-.98,0-1.85.22-2.61.61-.76.39-1.35.82-1.78,1.25-.42.42-.89.95-1.38,1.55l-7.94,10.29v11.73c0,1.05.36,1.84,1.06,2.36.7.52,1.54.79,2.53.82v.31h-10.01v-.31c1.04-.03,2.18-.3,2.78-.8.62-.52.93-1.3.93-2.38v-11.23l-8.3-11.17c-.89-1.21-1.68-2.01-2.38-2.4-.69-.39-1.95-.61-3.15-.63v-.34h11.26v.34c-1.18.03-1.93.26-2.27.68-.33.43-.49.82-.49,1.18,0,.42.28,1.03.86,1.78l6.78,9.06,6.34-8.14c.92-1.22,1.37-2.17,1.37-2.8,0-.46-.12-.81-.36-1.05-.24-.25-.49-.43-.74-.5-.25-.07-.51-.14-.8-.2v-.34h8.3Z"/>
      </g>
      <path class="cls-2" d="m251.82,97.68h-38.79v-2.43h38.79v2.43Zm-210.77,0H0v-2.43h41.05v2.43Z"/>
      <g id="Sharm_el_sheikh" data-name="Sharm el sheikh">
        <path class="cls-2" d="m48.18,100.56c.16.23.36.43.59.61.24.18.51.33.83.44.31.12.66.17,1.05.17s.76-.07,1.08-.21c.31-.14.59-.33.81-.56.23-.24.4-.52.52-.85.12-.32.18-.66.18-1.03,0-.56-.14-1-.43-1.33-.28-.33-.64-.6-1.06-.82-.42-.22-.88-.42-1.37-.6-.49-.19-.95-.42-1.37-.69-.42-.27-.78-.63-1.06-1.05-.28-.43-.42-1.01-.42-1.72,0-.51.09-.98.27-1.4.17-.41.44-.78.78-1.08.34-.31.76-.54,1.24-.72.48-.17,1.03-.25,1.63-.25s1.08.08,1.5.21c.42.13.82.35,1.18.65-.11.2-.2.43-.27.66-.07.23-.15.52-.21.87h-.23c-.06-.17-.14-.35-.24-.56-.1-.19-.24-.38-.42-.55-.18-.17-.39-.31-.62-.43-.24-.11-.54-.17-.87-.17s-.65.05-.94.15c-.28.11-.53.27-.74.47-.21.21-.38.44-.49.72-.12.28-.18.58-.18.91,0,.57.14,1.02.42,1.35.29.33.64.61,1.06.83.42.23.88.43,1.36.61.49.18.95.39,1.37.65.42.26.77.58,1.06.98.28.4.42.93.42,1.61,0,.56-.09,1.08-.29,1.58-.2.5-.49.94-.87,1.31-.38.36-.85.65-1.4.86-.55.19-1.18.3-1.87.3-.76,0-1.35-.1-1.82-.3-.46-.2-.85-.43-1.16-.69.11-.27.19-.53.22-.75.04-.23.08-.52.12-.87h.21c.1.22.23.45.39.66"/>
        <path class="cls-1" d="m48.18,100.56c.16.23.36.43.59.61.24.18.51.33.83.44.31.12.66.17,1.05.17s.76-.07,1.08-.21c.31-.14.59-.33.81-.56.23-.24.4-.52.52-.85.12-.32.18-.66.18-1.03,0-.56-.14-1-.43-1.33-.28-.33-.64-.6-1.06-.82-.42-.22-.88-.42-1.37-.6-.49-.19-.95-.42-1.37-.69-.42-.27-.78-.63-1.06-1.05-.28-.43-.42-1.01-.42-1.72,0-.51.09-.98.27-1.4.17-.41.44-.78.78-1.08.34-.31.76-.54,1.24-.72.48-.17,1.03-.25,1.63-.25s1.08.08,1.5.21c.42.13.82.35,1.18.65-.11.2-.2.43-.27.66-.07.23-.15.52-.21.87h-.23c-.06-.17-.14-.35-.24-.56-.1-.19-.24-.38-.42-.55-.18-.17-.39-.31-.62-.43-.24-.11-.54-.17-.87-.17s-.65.05-.94.15c-.28.11-.53.27-.74.47-.21.21-.38.44-.49.72-.12.28-.18.58-.18.91,0,.57.14,1.02.42,1.35.29.33.64.61,1.06.83.42.23.88.43,1.36.61.49.18.95.39,1.37.65.42.26.77.58,1.06.98.28.4.42.93.42,1.61,0,.56-.09,1.08-.29,1.58-.2.5-.49.94-.87,1.31-.38.36-.85.65-1.4.86-.55.19-1.18.3-1.87.3-.76,0-1.35-.1-1.82-.3-.46-.2-.85-.43-1.16-.69.11-.27.19-.53.22-.75.04-.23.08-.52.12-.87h.21c.1.22.23.45.39.66Z"/>
        <path class="cls-2" d="m66.94,92.1c-.03-.77-.06-1.55-.1-2.36.16.03.31.04.46.07.14.02.29.03.43.03s.29-.02.44-.03c.14-.02.29-.04.45-.07-.03.81-.07,1.59-.09,2.36-.03.77-.05,1.56-.05,2.36v3.13c0,.8.02,1.6.05,2.37.03.78.07,1.54.09,2.3-.27-.03-.57-.05-.89-.05s-.61.02-.9.05c.04-.76.07-1.52.1-2.3.04-.77.05-1.57.05-2.37v-1.64c-.65,0-1.29-.02-1.91-.03-.61,0-1.23-.01-1.9-.01s-1.29,0-1.9.01c-.61,0-1.25.02-1.9.03v1.64c0,.8.01,1.6.04,2.37.03.78.06,1.54.1,2.3-.28-.03-.58-.05-.89-.05s-.61.02-.89.05c.03-.76.07-1.52.1-2.3.03-.77.04-1.57.04-2.37v-3.13c0-.8-.01-1.59-.04-2.36-.03-.77-.07-1.55-.1-2.36.16.03.31.04.45.07.15.02.29.03.44.03s.29-.02.44-.03c.14-.02.29-.04.45-.07-.04.81-.07,1.59-.1,2.36-.03.77-.04,1.56-.04,2.36v.64c.65.02,1.29.02,1.9.04.61,0,1.25.01,1.9.01s1.29,0,1.9-.01c.62-.02,1.26-.02,1.91-.04v-.64c0-.8-.01-1.59-.05-2.36"/>
        <path class="cls-1" d="m66.94,92.1c-.03-.77-.06-1.55-.1-2.36.16.03.31.04.46.07.14.02.29.03.43.03s.29-.02.44-.03c.14-.02.29-.04.45-.07-.03.81-.07,1.59-.09,2.36-.03.77-.05,1.56-.05,2.36v3.13c0,.8.02,1.6.05,2.37.03.78.07,1.54.09,2.3-.27-.03-.57-.05-.89-.05s-.61.02-.9.05c.04-.76.07-1.52.1-2.3.04-.77.05-1.57.05-2.37v-1.64c-.65,0-1.29-.02-1.91-.03-.61,0-1.23-.01-1.9-.01s-1.29,0-1.9.01c-.61,0-1.25.02-1.9.03v1.64c0,.8.01,1.6.04,2.37.03.78.06,1.54.1,2.3-.28-.03-.58-.05-.89-.05s-.61.02-.89.05c.03-.76.07-1.52.1-2.3.03-.77.04-1.57.04-2.37v-3.13c0-.8-.01-1.59-.04-2.36-.03-.77-.07-1.55-.1-2.36.16.03.31.04.45.07.15.02.29.03.44.03s.29-.02.44-.03c.14-.02.29-.04.45-.07-.04.81-.07,1.59-.1,2.36-.03.77-.04,1.56-.04,2.36v.64c.65.02,1.29.02,1.9.04.61,0,1.25.01,1.9.01s1.29,0,1.9-.01c.62-.02,1.26-.02,1.91-.04v-.64c0-.8-.01-1.59-.05-2.36Z"/>
        <path class="cls-2" d="m74.67,96.58c.31,0,.64,0,.97.01.34.02.67.02.98.02.33,0,.67,0,1.01,0,.34-.01.67-.02,1.01-.03l-2.01-4.63-1.97,4.63Zm8.02,5.67c-.17-.03-.32-.05-.48-.05h-.96c-.15,0-.31.02-.48.05-.09-.28-.2-.62-.34-1.02-.14-.39-.31-.81-.48-1.23-.18-.43-.36-.88-.54-1.32-.18-.44-.34-.87-.51-1.26-.38-.01-.78-.02-1.18-.03-.4-.01-.79-.02-1.19-.02-.37,0-.74,0-1.11.02-.36,0-.73.01-1.1.03-.39.95-.74,1.84-1.05,2.7-.32.85-.55,1.57-.7,2.13-.2-.03-.43-.05-.67-.05s-.46.02-.67.05c.98-2.13,1.93-4.24,2.86-6.35.93-2.11,1.87-4.23,2.81-6.41h.34c.29.71.61,1.47.94,2.29.35.82.68,1.65,1.04,2.5.34.83.7,1.66,1.05,2.49.35.83.68,1.6.99,2.31.3.71.58,1.35.82,1.9.25.56.45.99.61,1.28"/>
        <path class="cls-1" d="m74.67,96.58c.31,0,.64,0,.97.01.34.02.67.02.98.02.33,0,.67,0,1.01,0,.34-.01.67-.02,1.01-.03l-2.01-4.63-1.97,4.63Zm8.02,5.67c-.17-.03-.32-.05-.48-.05h-.96c-.15,0-.31.02-.48.05-.09-.28-.2-.62-.34-1.02-.14-.39-.31-.81-.48-1.23-.18-.43-.36-.88-.54-1.32-.18-.44-.34-.87-.51-1.26-.38-.01-.78-.02-1.18-.03-.4-.01-.79-.02-1.19-.02-.37,0-.74,0-1.11.02-.36,0-.73.01-1.1.03-.39.95-.74,1.84-1.05,2.7-.32.85-.55,1.57-.7,2.13-.2-.03-.43-.05-.67-.05s-.46.02-.67.05c.98-2.13,1.93-4.24,2.86-6.35.93-2.11,1.87-4.23,2.81-6.41h.34c.29.71.61,1.47.94,2.29.35.82.68,1.65,1.04,2.5.34.83.7,1.66,1.05,2.49.35.83.68,1.6.99,2.31.3.71.58,1.35.82,1.9.25.56.45.99.61,1.28Z"/>
        <path class="cls-2" d="m87.47,95.56c.2.01.42.02.65.02.37,0,.76-.05,1.16-.14.4-.08.77-.23,1.11-.44.33-.21.61-.5.84-.85.22-.36.33-.81.33-1.36,0-.47-.08-.86-.26-1.17-.17-.31-.4-.56-.68-.74-.27-.18-.57-.3-.9-.37-.32-.07-.64-.1-.96-.1-.41,0-.76,0-1.03.02-.28.02-.52.05-.71.06-.02.67-.05,1.33-.07,1.99-.03.65-.03,1.3-.03,1.97v1.03c.17.04.35.07.55.07m-2.08-3.47c-.03-.77-.06-1.55-.09-2.36.34.03.69.04,1.02.07.34.02.68.03,1.03.03s.69-.02,1.03-.05c.32-.02.68-.04,1.03-.04.5,0,.97.05,1.44.15.46.09.85.26,1.2.48.34.23.61.52.8.88.2.37.3.82.3,1.37,0,.59-.13,1.09-.39,1.5-.26.42-.57.76-.95,1.04-.37.27-.77.48-1.19.63-.43.15-.82.25-1.17.3.14.18.34.43.59.77.25.33.54.69.85,1.08.32.4.64.81.97,1.24.33.43.66.84.98,1.24.3.39.61.76.88,1.08.28.33.49.58.66.75-.17-.03-.35-.05-.53-.05h-1.07c-.18,0-.36.02-.52.05-.18-.26-.45-.64-.82-1.15-.37-.51-.77-1.05-1.22-1.63-.44-.59-.9-1.16-1.36-1.73-.46-.58-.89-1.07-1.27-1.47h-.68v1.32c0,.8,0,1.6.04,2.37.03.78.06,1.54.1,2.3-.27-.03-.57-.05-.89-.05s-.61.02-.88.05c.04-.76.06-1.52.09-2.3.04-.77.05-1.57.05-2.37v-3.12c0-.8-.01-1.59-.05-2.36"/>
        <path class="cls-1" d="m87.47,95.56c.2.01.42.02.65.02.37,0,.76-.05,1.16-.14.4-.08.77-.23,1.11-.44.33-.21.61-.5.84-.85.22-.36.33-.81.33-1.36,0-.47-.08-.86-.26-1.17-.17-.31-.4-.56-.68-.74-.27-.18-.57-.3-.9-.37-.32-.07-.64-.1-.96-.1-.41,0-.76,0-1.03.02-.28.02-.52.05-.71.06-.02.67-.05,1.33-.07,1.99-.03.65-.03,1.3-.03,1.97v1.03c.17.04.35.07.55.07Zm-2.08-3.47c-.03-.77-.06-1.55-.09-2.36.34.03.69.04,1.02.07.34.02.68.03,1.03.03s.69-.02,1.03-.05c.32-.02.68-.04,1.03-.04.5,0,.97.05,1.44.15.46.09.85.26,1.2.48.34.23.61.52.8.88.2.37.3.82.3,1.37,0,.59-.13,1.09-.39,1.5-.26.42-.57.76-.95,1.04-.37.27-.77.48-1.19.63-.43.15-.82.25-1.17.3.14.18.34.43.59.77.25.33.54.69.85,1.08.32.4.64.81.97,1.24.33.43.66.84.98,1.24.3.39.61.76.88,1.08.28.33.49.58.66.75-.17-.03-.35-.05-.53-.05h-1.07c-.18,0-.36.02-.52.05-.18-.26-.45-.64-.82-1.15-.37-.51-.77-1.05-1.22-1.63-.44-.59-.9-1.16-1.36-1.73-.46-.58-.89-1.07-1.27-1.47h-.68v1.32c0,.8,0,1.6.04,2.37.03.78.06,1.54.1,2.3-.27-.03-.57-.05-.89-.05s-.61.02-.88.05c.04-.76.06-1.52.09-2.3.04-.77.05-1.57.05-2.37v-3.12c0-.8-.01-1.59-.05-2.36Z"/>
        <path class="cls-2" d="m100.88,94.53c.86,1.62,1.75,3.29,2.69,5.01.12-.23.29-.56.53-.99.23-.43.5-.92.8-1.49.3-.55.63-1.16.97-1.81.35-.65.7-1.3,1.06-1.97.36-.67.71-1.32,1.07-1.97.35-.65.68-1.25.98-1.81h.24c.13,1.17.25,2.29.37,3.38.12,1.09.24,2.16.35,3.21.13,1.05.25,2.08.37,3.11.12,1.04.26,2.05.4,3.06-.15-.03-.29-.05-.43-.05h-.86c-.14,0-.28.02-.43.05-.13-1.62-.27-3.18-.39-4.71-.14-1.52-.3-3.07-.5-4.64h-.03c-.84,1.52-1.67,3.05-2.47,4.56-.81,1.51-1.58,3.1-2.31,4.74h-.16c-.72-1.53-1.5-3.05-2.29-4.59-.8-1.54-1.6-3.11-2.39-4.71h-.04c-.08.74-.18,1.57-.29,2.45-.1.88-.2,1.75-.28,2.6-.09.86-.15,1.66-.22,2.42-.07.77-.09,1.39-.09,1.88-.19-.03-.4-.05-.64-.05s-.44.02-.64.05c.16-.99.33-2.03.49-3.12.17-1.09.33-2.19.5-3.3.16-1.11.3-2.19.43-3.27.14-1.08.25-2.1.35-3.08h.31c.84,1.73,1.69,3.4,2.54,5.03"/>
        <path class="cls-1" d="m100.88,94.53c.86,1.62,1.75,3.29,2.69,5.01.12-.23.29-.56.53-.99.23-.43.5-.92.8-1.49.3-.55.63-1.16.97-1.81.35-.65.7-1.3,1.06-1.97.36-.67.71-1.32,1.07-1.97.35-.65.68-1.25.98-1.81h.24c.13,1.17.25,2.29.37,3.38.12,1.09.24,2.16.35,3.21.13,1.05.25,2.08.37,3.11.12,1.04.26,2.05.4,3.06-.15-.03-.29-.05-.43-.05h-.86c-.14,0-.28.02-.43.05-.13-1.62-.27-3.18-.39-4.71-.14-1.52-.3-3.07-.5-4.64h-.03c-.84,1.52-1.67,3.05-2.47,4.56-.81,1.51-1.58,3.1-2.31,4.74h-.16c-.72-1.53-1.5-3.05-2.29-4.59-.8-1.54-1.6-3.11-2.39-4.71h-.04c-.08.74-.18,1.57-.29,2.45-.1.88-.2,1.75-.28,2.6-.09.86-.15,1.66-.22,2.42-.07.77-.09,1.39-.09,1.88-.19-.03-.4-.05-.64-.05s-.44.02-.64.05c.16-.99.33-2.03.49-3.12.17-1.09.33-2.19.5-3.3.16-1.11.3-2.19.43-3.27.14-1.08.25-2.1.35-3.08h.31c.84,1.73,1.69,3.4,2.54,5.03Z"/>
        <path class="cls-2" d="m119.57,92.07c-.03-.78-.06-1.55-.1-2.33.54.03,1.08.04,1.62.07.53.02,1.07.03,1.61.03s1.07-.02,1.6-.03c.53-.02,1.07-.04,1.61-.07-.03.18-.05.37-.05.55s.02.36.05.53c-.38,0-.74-.03-1.05-.07-.32-.02-.65-.04-1.01-.07-.35-.03-.74-.04-1.16-.06-.42-.02-.93-.03-1.52-.03-.01.39-.02.76-.05,1.11-.02.34-.03.75-.03,1.21s0,.92.01,1.38c0,.45.01.79.01,1.02.53,0,1.01,0,1.42-.02.42-.02.81-.03,1.15-.05.35-.02.67-.03.97-.05.3-.02.58-.04.84-.06-.03.18-.05.37-.05.57,0,.18.02.36.05.55-.31-.04-.67-.07-1.09-.09-.41-.03-.82-.04-1.25-.04-.41-.01-.8-.01-1.17-.02-.37-.01-.65-.02-.87-.02,0,.11,0,.23-.01.36-.01.12-.01.29-.01.48v1.81c0,.69,0,1.26.01,1.71,0,.45.02.79.03,1.02h1.26c.46,0,.91-.01,1.34-.02.44-.02.85-.05,1.25-.08.39-.03.73-.08,1.02-.14-.03.09-.04.19-.05.28,0,.11-.01.21-.01.28,0,.2.02.35.06.48-.54-.03-1.08-.05-1.61-.05h-3.28c-.54,0-1.09.02-1.64.05.04-.78.07-1.56.1-2.33.03-.78.04-1.56.04-2.36v-3.14c0-.79-.02-1.58-.04-2.37"/>
        <path class="cls-1" d="m119.57,92.07c-.03-.78-.06-1.55-.1-2.33.54.03,1.08.04,1.62.07.53.02,1.07.03,1.61.03s1.07-.02,1.6-.03c.53-.02,1.07-.04,1.61-.07-.03.18-.05.37-.05.55s.02.36.05.53c-.38,0-.74-.03-1.05-.07-.32-.02-.65-.04-1.01-.07-.35-.03-.74-.04-1.16-.06-.42-.02-.93-.03-1.52-.03-.01.39-.02.76-.05,1.11-.02.34-.03.75-.03,1.21s0,.92.01,1.38c0,.45.01.79.01,1.02.53,0,1.01,0,1.42-.02.42-.02.81-.03,1.15-.05.35-.02.67-.03.97-.05.3-.02.58-.04.84-.06-.03.18-.05.37-.05.57,0,.18.02.36.05.55-.31-.04-.67-.07-1.09-.09-.41-.03-.82-.04-1.25-.04-.41-.01-.8-.01-1.17-.02-.37-.01-.65-.02-.87-.02,0,.11,0,.23-.01.36-.01.12-.01.29-.01.48v1.81c0,.69,0,1.26.01,1.71,0,.45.02.79.03,1.02h1.26c.46,0,.91-.01,1.34-.02.44-.02.85-.05,1.25-.08.39-.03.73-.08,1.02-.14-.03.09-.04.19-.05.28,0,.11-.01.21-.01.28,0,.2.02.35.06.48-.54-.03-1.08-.05-1.61-.05h-3.28c-.54,0-1.09.02-1.64.05.04-.78.07-1.56.1-2.33.03-.78.04-1.56.04-2.36v-3.14c0-.79-.02-1.58-.04-2.37Z"/>
        <path class="cls-2" d="m129.26,92.11c-.03-.77-.06-1.55-.1-2.36.15.03.3.04.45.07.15.02.29.03.43.03s.29-.02.43-.03c.15-.02.3-.04.45-.07-.04.81-.06,1.59-.09,2.36-.03.77-.05,1.56-.05,2.36,0,1.53,0,2.86.02,3.98,0,1.13.02,2.13.03,3.01.86,0,1.67-.01,2.45-.02.79-.02,1.63-.09,2.53-.21-.06.22-.09.4-.09.55,0,.13.03.3.09.5-.56-.03-1.11-.05-1.66-.05h-3.33c-.54,0-1.1.02-1.67.05.03-.76.06-1.52.1-2.3.02-.78.04-1.57.04-2.37v-3.13c0-.8-.02-1.59-.04-2.36"/>
        <path class="cls-1" d="m129.26,92.11c-.03-.77-.06-1.55-.1-2.36.15.03.3.04.45.07.15.02.29.03.43.03s.29-.02.43-.03c.15-.02.3-.04.45-.07-.04.81-.06,1.59-.09,2.36-.03.77-.05,1.56-.05,2.36,0,1.53,0,2.86.02,3.98,0,1.13.02,2.13.03,3.01.86,0,1.67-.01,2.45-.02.79-.02,1.63-.09,2.53-.21-.06.22-.09.4-.09.55,0,.13.03.3.09.5-.56-.03-1.11-.05-1.66-.05h-3.33c-.54,0-1.1.02-1.67.05.03-.76.06-1.52.1-2.3.02-.78.04-1.57.04-2.37v-3.13c0-.8-.02-1.59-.04-2.36Z"/>
        <path class="cls-2" d="m144.6,100.56c.15.23.35.43.59.61.24.18.52.33.82.44.31.12.67.17,1.05.17.4,0,.76-.07,1.09-.21.31-.14.58-.33.81-.56.23-.24.39-.52.52-.85.12-.32.18-.66.18-1.03,0-.56-.14-1-.43-1.33-.28-.33-.63-.6-1.06-.82-.42-.22-.88-.42-1.37-.6-.49-.19-.95-.42-1.37-.69-.42-.27-.78-.63-1.06-1.05-.28-.43-.43-1.01-.43-1.72,0-.51.09-.98.27-1.4.18-.41.45-.78.79-1.08.34-.31.76-.54,1.24-.72.48-.17,1.02-.25,1.63-.25s1.08.08,1.51.21c.42.13.82.35,1.18.65-.11.2-.2.43-.27.66-.07.23-.14.52-.22.87h-.22c-.06-.17-.14-.35-.25-.56-.1-.19-.24-.38-.41-.55-.17-.17-.39-.31-.63-.43-.24-.11-.54-.17-.88-.17s-.64.05-.93.15c-.28.11-.53.27-.75.47-.21.21-.37.44-.48.72-.12.28-.18.58-.18.91,0,.57.14,1.02.43,1.35.29.33.64.61,1.06.83.41.23.88.43,1.36.61.49.18.95.39,1.37.65.42.26.78.58,1.06.98.29.4.43.93.43,1.61,0,.56-.1,1.08-.3,1.58-.2.5-.49.94-.87,1.31-.38.36-.84.65-1.39.86-.56.19-1.18.3-1.88.3-.75,0-1.36-.1-1.82-.3-.46-.2-.86-.43-1.16-.69.1-.27.18-.53.21-.75.05-.23.09-.52.12-.87h.22c.1.22.23.45.4.66"/>
        <path class="cls-1" d="m144.6,100.56c.15.23.35.43.59.61.24.18.52.33.82.44.31.12.67.17,1.05.17.4,0,.76-.07,1.09-.21.31-.14.58-.33.81-.56.23-.24.39-.52.52-.85.12-.32.18-.66.18-1.03,0-.56-.14-1-.43-1.33-.28-.33-.63-.6-1.06-.82-.42-.22-.88-.42-1.37-.6-.49-.19-.95-.42-1.37-.69-.42-.27-.78-.63-1.06-1.05-.28-.43-.43-1.01-.43-1.72,0-.51.09-.98.27-1.4.18-.41.45-.78.79-1.08.34-.31.76-.54,1.24-.72.48-.17,1.02-.25,1.63-.25s1.08.08,1.51.21c.42.13.82.35,1.18.65-.11.2-.2.43-.27.66-.07.23-.14.52-.22.87h-.22c-.06-.17-.14-.35-.25-.56-.1-.19-.24-.38-.41-.55-.17-.17-.39-.31-.63-.43-.24-.11-.54-.17-.88-.17s-.64.05-.93.15c-.28.11-.53.27-.75.47-.21.21-.37.44-.48.72-.12.28-.18.58-.18.91,0,.57.14,1.02.43,1.35.29.33.64.61,1.06.83.41.23.88.43,1.36.61.49.18.95.39,1.37.65.42.26.78.58,1.06.98.29.4.43.93.43,1.61,0,.56-.1,1.08-.3,1.58-.2.5-.49.94-.87,1.31-.38.36-.84.65-1.39.86-.56.19-1.18.3-1.88.3-.75,0-1.36-.1-1.82-.3-.46-.2-.86-.43-1.16-.69.1-.27.18-.53.21-.75.05-.23.09-.52.12-.87h.22c.1.22.23.45.4.66Z"/>
        <path class="cls-2" d="m163.35,92.1c-.03-.77-.06-1.55-.1-2.36.16.03.32.04.46.07.14.02.29.03.44.03.14,0,.29-.02.43-.03.14-.02.3-.04.45-.07-.03.81-.07,1.59-.09,2.36-.03.77-.05,1.56-.05,2.36v3.13c0,.8.02,1.6.05,2.37.02.78.06,1.54.09,2.3-.28-.03-.58-.05-.89-.05-.33,0-.61.02-.9.05.04-.76.07-1.52.1-2.3.03-.78.05-1.57.05-2.37v-1.64c-.66,0-1.29-.02-1.9-.03-.61,0-1.25-.01-1.91-.01s-1.29,0-1.89.01c-.61,0-1.25.02-1.9.03v1.64c0,.8.01,1.6.05,2.37.03.78.06,1.54.1,2.3-.28-.03-.58-.05-.9-.05s-.61.02-.89.05c.03-.76.07-1.52.11-2.3.03-.78.04-1.57.04-2.37v-3.13c0-.8,0-1.59-.04-2.36-.03-.77-.07-1.55-.11-2.36.16.03.31.04.45.07.15.02.29.03.43.03.15,0,.29-.02.44-.03.15-.02.29-.04.46-.07-.04.81-.07,1.59-.1,2.36-.03.77-.05,1.56-.05,2.36v.64c.65.02,1.29.02,1.9.04.61,0,1.24.01,1.89.01s1.3,0,1.91-.01c.61-.02,1.24-.02,1.9-.04v-.64c0-.8-.02-1.59-.05-2.36"/>
        <path class="cls-1" d="m163.35,92.1c-.03-.77-.06-1.55-.1-2.36.16.03.32.04.46.07.14.02.29.03.44.03.14,0,.29-.02.43-.03.14-.02.3-.04.45-.07-.03.81-.07,1.59-.09,2.36-.03.77-.05,1.56-.05,2.36v3.13c0,.8.02,1.6.05,2.37.02.78.06,1.54.09,2.3-.28-.03-.58-.05-.89-.05-.33,0-.61.02-.9.05.04-.76.07-1.52.1-2.3.03-.78.05-1.57.05-2.37v-1.64c-.66,0-1.29-.02-1.9-.03-.61,0-1.25-.01-1.91-.01s-1.29,0-1.89.01c-.61,0-1.25.02-1.9.03v1.64c0,.8.01,1.6.05,2.37.03.78.06,1.54.1,2.3-.28-.03-.58-.05-.9-.05s-.61.02-.89.05c.03-.76.07-1.52.11-2.3.03-.78.04-1.57.04-2.37v-3.13c0-.8,0-1.59-.04-2.36-.03-.77-.07-1.55-.11-2.36.16.03.31.04.45.07.15.02.29.03.43.03.15,0,.29-.02.44-.03.15-.02.29-.04.46-.07-.04.81-.07,1.59-.1,2.36-.03.77-.05,1.56-.05,2.36v.64c.65.02,1.29.02,1.9.04.61,0,1.24.01,1.89.01s1.3,0,1.91-.01c.61-.02,1.24-.02,1.9-.04v-.64c0-.8-.02-1.59-.05-2.36Z"/>
        <path class="cls-2" d="m169.05,92.07c-.04-.78-.06-1.55-.1-2.33.54.03,1.08.04,1.61.07.54.02,1.07.03,1.62.03s1.08-.02,1.6-.03c.53-.02,1.07-.04,1.61-.07-.04.18-.05.37-.05.55s.02.36.05.53c-.39,0-.74-.03-1.06-.07-.32-.02-.65-.04-1.01-.07-.36-.03-.74-.04-1.16-.06-.43-.02-.93-.03-1.52-.03-.01.39-.03.76-.05,1.11-.01.34-.02.75-.02,1.21s0,.92,0,1.38c0,.45,0,.79,0,1.02.53,0,1.01,0,1.43-.02.42-.02.8-.03,1.16-.05.35-.02.66-.03.96-.05.29-.02.57-.04.84-.06-.04.18-.06.37-.06.57,0,.18.02.36.06.55-.32-.04-.68-.07-1.1-.09s-.83-.04-1.25-.04c-.41-.01-.8-.01-1.17-.02-.37-.01-.66-.02-.88-.02,0,.11,0,.23,0,.36,0,.12,0,.29,0,.48v1.81c0,.69,0,1.26,0,1.71,0,.45,0,.79.02,1.02h1.26c.46,0,.91-.01,1.34-.02.44-.02.86-.05,1.25-.08.4-.03.73-.08,1.02-.14-.02.09-.03.19-.04.28-.01.11-.01.21-.01.28,0,.2.02.35.05.48-.54-.03-1.08-.05-1.61-.05h-3.28c-.54,0-1.09.02-1.64.05.04-.78.06-1.56.1-2.33.03-.78.05-1.56.05-2.36v-3.14c0-.79-.02-1.58-.05-2.37"/>
        <path class="cls-1" d="m169.05,92.07c-.04-.78-.06-1.55-.1-2.33.54.03,1.08.04,1.61.07.54.02,1.07.03,1.62.03s1.08-.02,1.6-.03c.53-.02,1.07-.04,1.61-.07-.04.18-.05.37-.05.55s.02.36.05.53c-.39,0-.74-.03-1.06-.07-.32-.02-.65-.04-1.01-.07-.36-.03-.74-.04-1.16-.06-.43-.02-.93-.03-1.52-.03-.01.39-.03.76-.05,1.11-.01.34-.02.75-.02,1.21s0,.92,0,1.38c0,.45,0,.79,0,1.02.53,0,1.01,0,1.43-.02.42-.02.8-.03,1.16-.05.35-.02.66-.03.96-.05.29-.02.57-.04.84-.06-.04.18-.06.37-.06.57,0,.18.02.36.06.55-.32-.04-.68-.07-1.1-.09s-.83-.04-1.25-.04c-.41-.01-.8-.01-1.17-.02-.37-.01-.66-.02-.88-.02,0,.11,0,.23,0,.36,0,.12,0,.29,0,.48v1.81c0,.69,0,1.26,0,1.71,0,.45,0,.79.02,1.02h1.26c.46,0,.91-.01,1.34-.02.44-.02.86-.05,1.25-.08.4-.03.73-.08,1.02-.14-.02.09-.03.19-.04.28-.01.11-.01.21-.01.28,0,.2.02.35.05.48-.54-.03-1.08-.05-1.61-.05h-3.28c-.54,0-1.09.02-1.64.05.04-.78.06-1.56.1-2.33.03-.78.05-1.56.05-2.36v-3.14c0-.79-.02-1.58-.05-2.37Z"/>
        <path class="cls-2" d="m178.74,92.11c-.03-.77-.07-1.55-.1-2.36.15.03.3.04.44.07.13.02.27.03.41.03.14,0,.28-.02.42-.03.14-.02.29-.04.43-.07-.04.81-.07,1.59-.09,2.36-.03.77-.05,1.56-.05,2.36v3.13c0,.8.02,1.6.05,2.37.02.78.05,1.54.09,2.3-.27-.03-.55-.05-.85-.05s-.58.02-.84.05c.03-.76.07-1.52.1-2.3.03-.77.04-1.57.04-2.37v-3.13c0-.8,0-1.59-.04-2.36"/>
        <path class="cls-1" d="m178.74,92.11c-.03-.77-.07-1.55-.1-2.36.15.03.3.04.44.07.13.02.27.03.41.03.14,0,.28-.02.42-.03.14-.02.29-.04.43-.07-.04.81-.07,1.59-.09,2.36-.03.77-.05,1.56-.05,2.36v3.13c0,.8.02,1.6.05,2.37.02.78.05,1.54.09,2.3-.27-.03-.55-.05-.85-.05s-.58.02-.84.05c.03-.76.07-1.52.1-2.3.03-.77.04-1.57.04-2.37v-3.13c0-.8,0-1.59-.04-2.36Z"/>
        <path class="cls-2" d="m184.34,99.96c.04-.77.05-1.56.05-2.36v-3.12c0-.8-.01-1.59-.05-2.35-.02-.77-.06-1.55-.09-2.35.15.03.3.04.44.07.15.02.29.03.44.03s.28-.02.43-.03c.15-.02.29-.04.45-.07-.03.81-.07,1.58-.1,2.35-.03.77-.04,1.55-.04,2.35v.99c0,.11.03.15.1.15.05,0,.13-.06.25-.16.42-.37.86-.78,1.33-1.23.46-.46.93-.95,1.39-1.44.47-.49.93-.99,1.39-1.51.46-.52.89-1.01,1.32-1.5.13.03.27.04.38.07.12.02.24.03.36.03.14,0,.29-.02.43-.03.15-.02.3-.04.44-.07-.42.37-.9.8-1.42,1.3-.53.49-1.06,1-1.6,1.52-.54.52-1.05,1.03-1.53,1.54-.48.5-.89.95-1.22,1.31.97,1.1,1.95,2.22,2.95,3.37.99,1.13,2,2.28,3.02,3.44-.18-.03-.36-.05-.54-.05h-1.04c-.16,0-.32.02-.49.05-.44-.5-.92-1.07-1.44-1.71-.52-.64-1.03-1.26-1.53-1.86-.5-.6-.95-1.13-1.35-1.62-.4-.47-.7-.81-.89-1-.09-.09-.17-.14-.21-.14-.06,0-.09.03-.09.1v1.58c0,.8.01,1.59.04,2.36.03.78.06,1.53.1,2.29-.28-.03-.57-.05-.88-.05s-.61.02-.88.05c.03-.76.07-1.51.09-2.29"/>
        <path class="cls-1" d="m184.34,99.96c.04-.77.05-1.56.05-2.36v-3.12c0-.8-.01-1.59-.05-2.35-.02-.77-.06-1.55-.09-2.35.15.03.3.04.44.07.15.02.29.03.44.03s.28-.02.43-.03c.15-.02.29-.04.45-.07-.03.81-.07,1.58-.1,2.35-.03.77-.04,1.55-.04,2.35v.99c0,.11.03.15.1.15.05,0,.13-.06.25-.16.42-.37.86-.78,1.33-1.23.46-.46.93-.95,1.39-1.44.47-.49.93-.99,1.39-1.51.46-.52.89-1.01,1.32-1.5.13.03.27.04.38.07.12.02.24.03.36.03.14,0,.29-.02.43-.03.15-.02.3-.04.44-.07-.42.37-.9.8-1.42,1.3-.53.49-1.06,1-1.6,1.52-.54.52-1.05,1.03-1.53,1.54-.48.5-.89.95-1.22,1.31.97,1.1,1.95,2.22,2.95,3.37.99,1.13,2,2.28,3.02,3.44-.18-.03-.36-.05-.54-.05h-1.04c-.16,0-.32.02-.49.05-.44-.5-.92-1.07-1.44-1.71-.52-.64-1.03-1.26-1.53-1.86-.5-.6-.95-1.13-1.35-1.62-.4-.47-.7-.81-.89-1-.09-.09-.17-.14-.21-.14-.06,0-.09.03-.09.1v1.58c0,.8.01,1.59.04,2.36.03.78.06,1.53.1,2.29-.28-.03-.57-.05-.88-.05s-.61.02-.88.05c.03-.76.07-1.51.09-2.29Z"/>
        <path class="cls-2" d="m205.18,92.1c-.04-.77-.06-1.55-.1-2.36.16.03.31.04.46.07.15.02.3.03.43.03.15,0,.3-.02.43-.03.16-.02.3-.04.46-.07-.03.81-.07,1.59-.09,2.36-.03.77-.05,1.56-.05,2.36v3.13c0,.8.01,1.6.05,2.37.03.78.06,1.54.09,2.3-.28-.03-.58-.05-.89-.05s-.61.02-.89.05c.04-.76.06-1.52.1-2.3.03-.77.04-1.57.04-2.37v-1.64c-.66,0-1.3-.02-1.91-.03-.61,0-1.24-.01-1.9-.01s-1.29,0-1.91.01c-.61,0-1.24.02-1.9.03v1.64c0,.8.01,1.6.04,2.37.03.78.06,1.54.11,2.3-.29-.03-.59-.05-.9-.05s-.61.02-.89.05c.03-.76.06-1.52.1-2.3.02-.77.05-1.57.05-2.37v-3.13c0-.8-.03-1.59-.05-2.36-.03-.77-.06-1.55-.1-2.36.15.03.3.04.45.07.14.02.28.03.43.03s.29-.02.43-.03c.15-.02.3-.04.46-.07-.05.81-.08,1.59-.11,2.36-.03.77-.04,1.56-.04,2.36v.64c.65.02,1.28.02,1.9.04.62,0,1.25.01,1.91.01s1.29,0,1.9-.01c.61-.02,1.24-.02,1.91-.04v-.64c0-.8-.02-1.59-.04-2.36"/>
        <path class="cls-1" d="m205.18,92.1c-.04-.77-.06-1.55-.1-2.36.16.03.31.04.46.07.15.02.3.03.43.03.15,0,.3-.02.43-.03.16-.02.3-.04.46-.07-.03.81-.07,1.59-.09,2.36-.03.77-.05,1.56-.05,2.36v3.13c0,.8.01,1.6.05,2.37.03.78.06,1.54.09,2.3-.28-.03-.58-.05-.89-.05s-.61.02-.89.05c.04-.76.06-1.52.1-2.3.03-.77.04-1.57.04-2.37v-1.64c-.66,0-1.3-.02-1.91-.03-.61,0-1.24-.01-1.9-.01s-1.29,0-1.91.01c-.61,0-1.24.02-1.9.03v1.64c0,.8.01,1.6.04,2.37.03.78.06,1.54.11,2.3-.29-.03-.59-.05-.9-.05s-.61.02-.89.05c.03-.76.06-1.52.1-2.3.02-.77.05-1.57.05-2.37v-3.13c0-.8-.03-1.59-.05-2.36-.03-.77-.06-1.55-.1-2.36.15.03.3.04.45.07.14.02.28.03.43.03s.29-.02.43-.03c.15-.02.3-.04.46-.07-.05.81-.08,1.59-.11,2.36-.03.77-.04,1.56-.04,2.36v.64c.65.02,1.28.02,1.9.04.62,0,1.25.01,1.91.01s1.29,0,1.9-.01c.61-.02,1.24-.02,1.91-.04v-.64c0-.8-.02-1.59-.04-2.36Z"/>
      </g>
    </g>
  </g>
</svg>